# Exported from Wings 3D 2.4.1
mtllib duck.mtl
o Cube1
#67 vertices, 61 faces
v -1.00000000 -0.31840000 -0.75600000
v -1.00000000 -0.31840000 0.75600000
v -1.00000000 0.54560000 -0.75600000
v -1.00000000 0.54560000 0.75600000
v 1.00000000 0.54560000 -0.75600000
v 1.00000000 0.54560000 0.75600000
v 0.0000000e+0 0.54560000 -0.75600000
v 0.0000000e+0 0.54560000 0.75600000
v 0.22000000 0.74111646 -0.53600000
v 0.22000000 0.74111646 0.53600000
v 0.78000000 0.74111646 0.53600000
v 0.78000000 0.74111646 -0.53600000
v 0.22000000 0.92168165 0.17866667
v 0.22000000 0.92168165 -0.17866667
v 0.78000000 0.92168165 -0.17866667
v 0.78000000 0.92168165 0.17866667
v 0.97824000 0.99988823 -0.30516267
v 2.1760000e-2 0.99988823 -0.30516267
v 2.1760000e-2 0.99988823 0.30516267
v 0.97824000 0.99988823 0.30516267
v 0.97824000 1.53583334 -0.30516267
v 2.1760000e-2 1.53583334 -0.30516267
v 2.1760000e-2 1.53583334 0.30516267
v 0.97824000 1.53583334 0.30516267
v 0.82260704 1.64739273 -0.14952971
v 0.17739296 1.64739273 -0.14952971
v 0.17739296 1.64739273 0.14952971
v 0.82260704 1.64739273 0.14952971
v 0.97824000 1.26786079 -0.30516267
v 0.97824000 1.26786079 0.30516267
v 1.54178743 1.19738401 -0.23468589
v 1.54178743 1.19738401 0.23468589
v 1.54178743 1.07036502 0.23468589
v 1.54178743 1.07036502 -0.23468589
v -1.50374240 0.11994042 -0.48902400
v -1.50374240 0.11994042 0.48902400
v -1.50374240 0.44998842 0.48902400
v -1.50374240 0.44998842 -0.48902400
v -1.78206582 0.24043604 -0.39958099
v -1.78206582 0.24043604 0.39958099
v -1.78206582 0.39159803 0.39958099
v -1.78206582 0.39159803 -0.39958099
v -1.00000000 0.11360000 -0.75600000
v 1.00000000 0.11360000 -0.75600000
v 0.0000000e+0 0.11360000 -0.75600000
v 0.0000000e+0 0.11360000 -1.05847546
v -1.00000000 0.54560000 -1.05847546
v 1.00000000 0.11360000 -1.05847546
v -1.00000000 0.11360000 0.75600000
v 1.00000000 0.11360000 0.75600000
v 0.0000000e+0 0.11360000 0.75600000
v -1.00000000 0.54560000 1.05847546
v 0.0000000e+0 0.11360000 1.05847546
v 1.00000000 0.11360000 1.05847546
v 0.0000000e+0 0.54560000 0.90723773
v 1.00000000 0.54560000 0.90723773
v -1.00000000 0.54560000 0.90723773
v -0.50000000 0.32960000 1.05847546
v 1.00000000 0.32960000 1.05847546
v -0.50000000 0.32960000 0.75600000
v 1.00000000 0.54560000 -0.90723773
v 1.00000000 0.32960000 -1.05847546
v 0.0000000e+0 0.54560000 -0.90723773
v -1.00000000 0.54560000 -0.90723773
v -0.50000000 0.32960000 -1.05847546
v 0.33333333 -0.31840000 -0.75600000
v 0.33333333 -0.31840000 0.75600000
vt 0.0000000e+0 1.9428903e-16
vt 0.0000000e+0 0.25917026
vt 0.0000000e+0 0.35570351
vt 0.0000000e+0 0.47932705
vt 0.0000000e+0 0.69590375
vt 5.1215634e-5 0.38161397
vt 8.9355716e-4 0.83284308
vt 4.8629962e-2 0.68025939
vt 4.9723535e-2 0.84785149
vt 5.0069138e-2 0.33495048
vt 5.0180963e-2 0.39152354
vt 0.11581761 0.40771902
vt 0.13585123 0.58210423
vt 0.13602074 0.60802176
vt 0.13616692 1.3877788e-16
vt 0.13616692 0.25917026
vt 0.13619060 0.63393878
vt 0.13788120 0.89302551
vt 0.13805227 0.91893715
vt 0.13819913 0.94484824
vt 0.14764344 0.25962201
vt 0.14778981 0.33367051
vt 0.14793617 0.40771902
vt 0.17137034 0.48296298
vt 0.23356728 0.37052536
vt 0.30738069 0.60691133
vt 0.30754841 0.63282765
vt 0.30922492 0.89192009
vt 0.30991014 0.91789824
vt 0.31919838 0.33333170
vt 0.34116995 0.56063090
vt 0.34136161 0.77129165
vt 0.34274067 0.48659891
vt 0.34431140 0.41256693
vt 0.34453889 0.83980014
vt 0.34557446 0.68301951
vt 0.34601855 0.75162648
vt 0.36471212 0.25917026
vt 0.36471212 0.0000000e+0
vt 0.37618820 0.25917026
vt 0.43718784 0.76683611
vt 0.43921861 0.54631881
vt 0.44037326 0.83534562
vt 0.44041864 0.48975838
vt 0.44153702 0.68239835
vt 0.44198111 0.75100532
vt 0.47874237 0.60580208
vt 0.47891013 0.63171844
vt 0.47917153 0.21340820
vt 0.47917153 4.5762063e-2
vt 0.47990535 0.56063090
vt 0.48036687 0.88396253
vt 0.48157120 0.90984437
vt 0.48372737 0.95497436
vt 0.48952970 0.53737537
vt 0.49007931 0.51147069
vt 0.49060695 0.33299289
vt 0.53115766 5.6069133e-2
vt 0.53115766 6.1093391e-2
vt 0.53115766 0.17971249
vt 0.53115766 0.19807687
vt 0.53115766 0.23155948
vt 0.53115766 0.23155948
vt 0.53115766 0.35745511
vt 0.53115766 0.39447944
vt 0.53115766 0.52678596
vt 0.53115766 0.91419371
vt 0.53115766 0.94010422
vt 0.53115766 0.28340647
vt 0.53115766 0.57302822
vt 0.53115766 0.63201907
vt 0.53115766 0.72388459
vt 0.53115766 0.79969745
vt 0.53115766 0.91419371
vt 0.53120772 0.55125609
vt 0.53136889 0.72388459
vt 0.53148507 0.44359833
vt 0.53687859 9.2648792e-2
vt 0.56145805 0.88241570
vt 0.56145805 0.83107961
vt 0.56495836 0.77703281
vt 0.56821167 0.12522280
vt 0.58238196 4.8057830e-2
vt 0.59382382 0.12121715
vt 0.61686211 0.32043079
vt 0.62837351 0.63126513
vt 0.62847912 0.58533237
vt 0.62858473 0.53939961
vt 0.63011773 0.79856803
vt 0.63192184 0.53932001
vt 0.63219081 0.43150376
vt 0.63543095 0.16850423
vt 0.66672690 0.51517943
vt 0.66691476 0.45582377
vt 0.66814114 0.91419371
vt 0.66814114 0.94010422
vt 0.67376060 0.83034604
vt 0.67376060 0.88168213
vt 0.69136785 0.79856803
vt 0.69510641 0.63164210
vt 0.69521203 0.67757486
vt 0.69531764 0.72350762
vt 0.70256656 0.17971249
vt 0.70256656 0.23155948
vt 0.70256656 0.28340647
vt 0.70256656 0.35745511
vt 0.70256656 0.23155948
vt 0.70256656 0.28340647
vt 0.70313533 0.17971249
vt 0.70406100 0.79856803
vt 0.70406100 0.82034021
vt 0.70406100 0.91306429
vt 0.75652722 0.77703281
vt 0.76178515 0.51522120
vt 0.76212400 0.45616621
vt 0.76364983 0.17024824
vt 0.78451550 0.79856803
vt 0.78451550 0.82034021
vt 0.78827101 0.39447944
vt 0.79032792 0.72388459
vt 0.79232226 0.63164210
vt 0.79248343 0.64349858
vt 0.79253349 0.53977658
vt 0.79253349 0.66527071
vt 0.79592637 0.17971249
vt 0.79592637 0.23155948
vt 0.79592637 0.28340647
vt 0.79643799 0.53939961
vt 0.79700017 0.43216723
vt 0.82469905 0.13890335
vt 0.83843957 8.0113037e-3
vt 0.84988143 8.1170621e-2
vt 0.87397546 0.28340647
vt 0.87397546 0.32043079
vt 0.87397546 0.43150376
vt 0.87549359 7.7164970e-2
vt 0.88928617 0.17971249
vt 0.88928617 0.20563599
vt 0.88928617 0.23155948
vt 0.88928617 0.25748297
vt 0.88928617 0.28340647
vt 0.88966387 0.0000000e+0
vt 0.89538480 0.0000000e+0
vt 0.89538480 3.6579659e-2
vt 0.89538480 9.1865763e-2
vt 0.89538480 9.1865763e-2
vt 0.89538480 0.19648096
vt 0.89538480 0.19648096
vt 0.89538480 0.24241384
vt 0.99273430 0.10394611
vt 0.99273430 0.18440061
vt 1.00000000 6.2450045e-17
vt 1.00000000 9.1865763e-2
vt 1.00000000 0.19648096
vt 1.00000000 0.24241384
vn -0.40039312 -0.62454766 -0.67054126
vn -0.40039312 -0.62454766 0.67054126
vn -0.35210807 0.69141949 -0.63083991
vn -0.35210807 0.69141949 0.63083991
vn 0.75453416 0.63141068 -0.17888194
vn 0.75453416 0.63141068 0.17888194
vn -0.17950734 0.97245601 -0.14868228
vn -0.17950734 0.97245601 0.14868228
vn -0.30548341 0.85218263 -0.42481132
vn -0.30548341 0.85218263 0.42481132
vn 0.30548341 0.85218263 0.42481132
vn 0.30548341 0.85218263 -0.42481132
vn -0.75372128 -0.18760331 0.62984858
vn -0.75372128 -0.18760331 -0.62984858
vn 0.75372128 -0.18760331 -0.62984858
vn 0.75372128 -0.18760331 0.62984858
vn 0.16205758 -0.73053041 -0.66337219
vn -0.50359708 -0.65604772 -0.56213110
vn -0.50359708 -0.65604772 0.56213110
vn 0.16205758 -0.73053041 0.66337219
vn 0.57213102 0.58764972 -0.57213102
vn -0.57213102 0.58764972 -0.57213102
vn -0.57213102 0.58764972 0.57213102
vn 0.57213102 0.58764972 0.57213102
vn 0.21171735 0.95412344 -0.21171735
vn -0.21171735 0.95412344 -0.21171735
vn -0.21171735 0.95412344 0.21171735
vn 0.21171735 0.95412344 0.21171735
vn 0.48913810 0.38885048 -0.78072993
vn 0.48913810 0.38885048 0.78072993
vn 0.66460854 0.52834434 -0.52834434
vn 0.66460854 0.52834434 0.52834434
vn 0.66460854 -0.52834434 0.52834434
vn 0.66460854 -0.52834434 -0.52834434
vn -0.59285990 -0.54229642 -0.59534169
vn -0.59285990 -0.54229642 0.59534169
vn -0.39818681 0.66971130 0.62684452
vn -0.39818681 0.66971130 -0.62684452
vn -0.78989697 -0.42558594 -0.44151940
vn -0.78989697 -0.42558594 0.44151940
vn -0.74201816 0.48052676 0.46744313
vn -0.74201816 0.48052676 -0.46744313
vn -0.16029666 0.0000000e+0 -0.98706888
vn 0.77214059 -0.55826876 -0.30353730
vn -0.14167065 -0.68517524 -0.71446785
vn -0.18033661 -0.87217910 -0.45473325
vn -0.18110288 0.42330863 -0.88770015
vn 0.57735027 -0.57735027 -0.57735027
vn -0.16029666 0.0000000e+0 0.98706888
vn 0.77214059 -0.55826876 0.30353730
vn -0.14167065 -0.68517524 0.71446785
vn -0.18110288 0.42330863 0.88770015
vn -0.18033661 -0.87217910 0.45473325
vn 0.57735027 -0.57735027 0.57735027
vn 1.3751481e-2 0.98322966 0.18185253
vn 0.49318550 0.80781211 0.32281211
vn -0.97928586 0.20248260 0.0000000e+0
vn -0.32997175 -0.76382350 0.55470020
vn 0.35347761 0.24299598 0.90333080
vn -0.35470897 -0.82108559 0.44721360
vn 0.49318550 0.80781211 -0.32281211
vn 0.35347761 0.24299598 -0.90333080
vn 1.3751481e-2 0.98322966 -0.18185253
vn -0.34413527 0.93892008 0.0000000e+0
vn -0.17735449 -0.41054279 -0.89442719
vn 0.25141775 -0.85031860 -0.46232824
vn 0.25141775 -0.85031860 0.46232824
g Cube1_Cube1_auv
usemtl Cube1_auv
s 1
f 1/34/1 35/44/35 38/42/38 3/31/3 43/33/43
f 1/38/1 66/16/66 67/15/67 2/39/2
f 2/39/2 36/50/36 35/49/35 1/38/1
f 2/21/2 67/40/67 50/57/50 51/30/51 49/22/49
f 3/18/3 38/9/38 37/8/37 4/17/4
f 3/31/3 45/24/45 43/33/43
f 3/139/3 64/140/64 47/141/47 65/127/65 46/108/46 45/107/45
f 4/17/4 8/27/8 7/28/7 3/18/3
f 4/17/4 57/14/57 55/26/55 8/27/8
f 4/139/4 60/126/60 58/125/58 57/138/57
f 5/132/5 12/130/12 15/116/15 16/109/16 11/92/11 6/84/6
f 5/52/5 61/53/61 63/29/63 7/28/7
f 6/48/6 11/45/11 10/36/10 8/27/8
f 6/84/6 50/83/50 44/131/44 5/132/5
f 6/84/6 56/82/56 59/78/59 54/58/54 50/83/50
f 7/28/7 9/35/9 12/43/12 5/52/5
f 7/28/7 63/29/63 64/19/64 3/18/3
f 8/120/8 10/113/10 13/99/13 14/89/14 9/81/9 7/72/7
f 8/27/8 55/26/55 56/47/56 6/48/6
f 10/36/10 11/45/11 16/46/16 13/37/13
f 12/43/12 9/35/9 14/32/14 15/41/15
f 13/115/13 19/129/19 18/128/18 14/114/14
f 14/114/14 18/128/18 17/90/17 15/93/15
f 15/93/15 17/90/17 20/91/20 16/94/16
f 16/94/16 20/91/20 19/129/19 13/115/13
f 17/90/17 34/66/34 33/77/33 20/91/20
f 18/123/18 22/121/22 21/86/21 29/87/29 17/88/17
f 19/152/19 23/153/23 22/145/22 18/143/18
f 20/100/20 30/101/30 24/102/24 23/76/23 19/71/19
f 20/100/20 33/122/33 32/124/32 30/101/30
f 21/112/21 25/98/25 28/97/28 24/110/24
f 22/74/22 26/79/26 25/98/25 21/112/21
f 23/73/23 27/80/27 26/79/26 22/74/22
f 24/110/24 28/97/28 27/80/27 23/73/23
f 24/149/24 30/148/30 29/154/29 21/155/21
f 26/79/26 27/80/27 28/97/28 25/98/25
f 29/87/29 31/70/31 34/75/34 17/88/17
f 30/146/30 32/150/32 31/151/31 29/147/29
f 32/111/32 33/110/33 34/117/34 31/118/31
f 35/44/35 39/56/39 42/55/42 38/42/38
f 36/50/36 40/59/40 39/61/39 35/49/35
f 37/11/37 41/6/41 40/3/40 36/10/36
f 38/9/38 42/7/42 41/5/41 37/8/37
f 40/95/40 41/96/41 42/68/42 39/67/39
f 43/33/43 45/24/45 44/4/44 66/12/66 1/34/1
f 44/131/44 48/142/48 62/144/62 61/136/61 5/132/5
f 45/107/45 46/108/46 48/69/48 44/63/44
f 47/135/47 62/65/62 65/119/65
f 48/64/48 46/106/46 65/119/65 62/65/62
f 49/22/49 4/23/4 37/11/37 36/10/36 2/21/2
f 49/22/49 51/30/51 60/25/60 4/23/4
f 50/62/50 54/60/54 53/103/53 51/104/51
f 50/1/50 67/15/67 66/16/66 44/2/44
f 51/104/51 53/103/53 58/125/58 60/126/60
f 52/13/52 55/26/55 57/14/57
f 53/105/53 54/133/54 59/134/59 58/85/58
f 55/26/55 52/13/52 59/51/59 56/47/56
f 57/138/57 58/125/58 52/137/52
f 58/85/58 59/134/59 52/64/52
f 62/54/62 47/20/47 63/29/63 61/53/61
f 64/19/64 63/29/63 47/20/47
