v 0.016315 0.005614 0.036578
v 0.021833 0.005614 0.036578
v 0.017468 0.008461 0.036031
v 0.020680 0.008461 0.036031
v 0.017468 0.009160 0.032896
v 0.020680 0.009160 0.032896
v 0.016315 0.006815 0.031192
v 0.021833 0.006815 0.031192
v -0.006093 0.004316 0.042400
v -0.000575 0.004316 0.042400
v -0.004940 0.007163 0.041853
v -0.001728 0.007163 0.041853
v -0.004940 0.007862 0.038719
v -0.001728 0.007862 0.038719
v -0.006093 0.005517 0.037014
v -0.000575 0.005517 0.037014
v 0.022578 0.005614 0.036578
v 0.028096 0.005614 0.036578
v 0.023731 0.008461 0.036031
v 0.026943 0.008461 0.036031
v 0.023731 0.009160 0.032896
v 0.026943 0.009160 0.032896
v 0.022578 0.006815 0.031192
v 0.028096 0.006815 0.031192
v 0.022578 0.003039 0.048128
v 0.028096 0.003039 0.048128
v 0.023731 0.005886 0.047581
v 0.026943 0.005886 0.047581
v 0.023731 0.006585 0.044447
v 0.026943 0.006585 0.044447
v 0.022578 0.004240 0.042742
v 0.028096 0.004240 0.042742
v 0.016315 0.003039 0.048128
v 0.021833 0.003039 0.048128
v 0.017468 0.005886 0.047581
v 0.020680 0.005886 0.047581
v 0.017468 0.006585 0.044447
v 0.020680 0.006585 0.044447
v 0.016315 0.004240 0.042742
v 0.021833 0.004240 0.042742
v 0.022578 0.004316 0.042400
v 0.028096 0.004316 0.042400
v 0.023731 0.007163 0.041853
v 0.026943 0.007163 0.041853
v 0.023731 0.007862 0.038719
v 0.026943 0.007862 0.038719
v 0.022578 0.005517 0.037014
v 0.028096 0.005517 0.037014
v -0.012443 0.005614 0.036578
v -0.006925 0.005614 0.036578
v -0.011290 0.008461 0.036031
v -0.008078 0.008461 0.036031
v -0.011290 0.009160 0.032896
v -0.008078 0.009160 0.032896
v -0.012443 0.006815 0.031192
v -0.006925 0.006815 0.031192
v 0.016315 0.004316 0.042400
v 0.021833 0.004316 0.042400
v 0.017468 0.007163 0.041853
v 0.020680 0.007163 0.041853
v 0.017468 0.007862 0.038719
v 0.020680 0.007862 0.038719
v 0.016315 0.005517 0.037014
v 0.021833 0.005517 0.037014
v -0.006093 0.005614 0.036578
v -0.000575 0.005614 0.036578
v -0.004940 0.008461 0.036031
v -0.001728 0.008461 0.036031
v -0.004940 0.009160 0.032896
v -0.001728 0.009160 0.032896
v -0.006093 0.006815 0.031192
v -0.000575 0.006815 0.031192
v 0.000258 0.005614 0.036578
v 0.005775 0.005614 0.036578
v 0.001411 0.008461 0.036031
v 0.004622 0.008461 0.036031
v 0.001411 0.009160 0.032896
v 0.004622 0.009160 0.032896
v 0.000258 0.006815 0.031192
v 0.005775 0.006815 0.031192
v 0.000258 0.003039 0.048128
v 0.005775 0.003039 0.048128
v 0.001411 0.005886 0.047581
v 0.004622 0.005886 0.047581
v 0.001411 0.006585 0.044447
v 0.004622 0.006585 0.044447
v 0.000258 0.004240 0.042742
v 0.005775 0.004240 0.042742
v -0.006093 0.003039 0.048128
v -0.000575 0.003039 0.048128
v -0.004940 0.005886 0.047581
v -0.001728 0.005886 0.047581
v -0.004940 0.006585 0.044447
v -0.001728 0.006585 0.044447
v -0.006093 0.004240 0.042742
v -0.000575 0.004240 0.042742
v 0.009965 0.003039 0.048128
v 0.015483 0.003039 0.048128
v 0.011118 0.005886 0.047581
v 0.014330 0.005886 0.047581
v 0.011118 0.006585 0.044447
v 0.014330 0.006585 0.044447
v 0.009965 0.004240 0.042742
v 0.015483 0.004240 0.042742
v -0.025144 0.003039 0.048128
v -0.019626 0.003039 0.048128
v -0.023991 0.005886 0.047581
v -0.020779 0.005886 0.047581
v -0.023991 0.006585 0.044447
v -0.020779 0.006585 0.044447
v -0.025144 0.004240 0.042742
v -0.019626 0.004240 0.042742
v -0.018793 0.003039 0.048128
v -0.013276 0.003039 0.048128
v -0.017640 0.005886 0.047581
v -0.014429 0.005886 0.047581
v -0.017640 0.006585 0.044447
v -0.014429 0.006585 0.044447
v -0.018793 0.004240 0.042742
v -0.013276 0.004240 0.042742
v -0.012443 0.003039 0.048128
v -0.006925 0.003039 0.048128
v -0.011290 0.005886 0.047581
v -0.008078 0.005886 0.047581
v -0.011290 0.006585 0.044447
v -0.008078 0.006585 0.044447
v -0.012443 0.004240 0.042742
v -0.006925 0.004240 0.042742
v -0.012443 0.004316 0.042400
v -0.006925 0.004316 0.042400
v -0.011290 0.007163 0.041853
v -0.008078 0.007163 0.041853
v -0.011290 0.007862 0.038719
v -0.008078 0.007862 0.038719
v -0.012443 0.005517 0.037014
v -0.006925 0.005517 0.037014
v -0.018793 0.004316 0.042400
v -0.013276 0.004316 0.042400
v -0.017640 0.007163 0.041853
v -0.014429 0.007163 0.041853
v -0.017640 0.007862 0.038719
v -0.014429 0.007862 0.038719
v -0.018793 0.005517 0.037014
v -0.013276 0.005517 0.037014
v -0.025144 0.004316 0.042400
v -0.019626 0.004316 0.042400
v -0.023991 0.007163 0.041853
v -0.020779 0.007163 0.041853
v -0.023991 0.007862 0.038719
v -0.020779 0.007862 0.038719
v -0.025144 0.005517 0.037014
v -0.019626 0.005517 0.037014
v 0.009965 0.005614 0.036578
v 0.015483 0.005614 0.036578
v 0.011118 0.008461 0.036031
v 0.014330 0.008461 0.036031
v 0.011118 0.009160 0.032896
v 0.014330 0.009160 0.032896
v 0.009965 0.006815 0.031192
v 0.015483 0.006815 0.031192
v 0.000258 0.004316 0.042400
v 0.005775 0.004316 0.042400
v 0.001411 0.007163 0.041853
v 0.004622 0.007163 0.041853
v 0.001411 0.007862 0.038719
v 0.004622 0.007862 0.038719
v 0.000258 0.005517 0.037014
v 0.005775 0.005517 0.037014
v 0.009965 0.004316 0.042400
v 0.015483 0.004316 0.042400
v 0.011118 0.007163 0.041853
v 0.014330 0.007163 0.041853
v 0.011118 0.007862 0.038719
v 0.014330 0.007862 0.038719
v 0.009965 0.005517 0.037014
v 0.015483 0.005517 0.037014
v -0.018793 0.005614 0.036578
v -0.013276 0.005614 0.036578
v -0.017640 0.008461 0.036031
v -0.014429 0.008461 0.036031
v -0.017640 0.009160 0.032896
v -0.014429 0.009160 0.032896
v -0.018793 0.006815 0.031192
v -0.013276 0.006815 0.031192
v -0.025144 0.005614 0.036578
v -0.019626 0.005614 0.036578
v -0.023991 0.008461 0.036031
v -0.020779 0.008461 0.036031
v -0.023991 0.009160 0.032896
v -0.020779 0.009160 0.032896
v -0.025144 0.006815 0.031192
v -0.019626 0.006815 0.031192
f 1 2 4 3
f 3 4 6 5
f 5 6 8 7
f 2 8 6 4
f 7 1 3 5
f 9 10 12 11
f 11 12 14 13
f 13 14 16 15
f 10 16 14 12
f 15 9 11 13
f 10 9 15 16
f 17 18 20 19
f 19 20 22 21
f 21 22 24 23
f 18 24 22 20
f 23 17 19 21
f 25 26 28 27
f 27 28 30 29
f 29 30 32 31
f 26 32 30 28
f 31 25 27 29
f 26 25 31 32
f 33 34 36 35
f 35 36 38 37
f 37 38 40 39
f 34 40 38 36
f 39 33 35 37
f 34 33 39 40
f 41 42 44 43
f 43 44 46 45
f 45 46 48 47
f 42 48 46 44
f 47 41 43 45
f 42 41 47 48
f 49 50 52 51
f 51 52 54 53
f 53 54 56 55
f 50 56 54 52
f 55 49 51 53
f 57 58 60 59
f 59 60 62 61
f 61 62 64 63
f 58 64 62 60
f 63 57 59 61
f 58 57 63 64
f 65 66 68 67
f 67 68 70 69
f 69 70 72 71
f 66 72 70 68
f 71 65 67 69
f 73 74 76 75
f 75 76 78 77
f 77 78 80 79
f 74 80 78 76
f 79 73 75 77
f 81 82 84 83
f 83 84 86 85
f 85 86 88 87
f 82 88 86 84
f 87 81 83 85
f 82 81 87 88
f 89 90 92 91
f 91 92 94 93
f 93 94 96 95
f 90 96 94 92
f 95 89 91 93
f 90 89 95 96
f 97 98 100 99
f 99 100 102 101
f 101 102 104 103
f 98 104 102 100
f 103 97 99 101
f 98 97 103 104
f 105 106 108 107
f 107 108 110 109
f 109 110 112 111
f 106 112 110 108
f 111 105 107 109
f 106 105 111 112
f 113 114 116 115
f 115 116 118 117
f 117 118 120 119
f 114 120 118 116
f 119 113 115 117
f 114 113 119 120
f 121 122 124 123
f 123 124 126 125
f 125 126 128 127
f 122 128 126 124
f 127 121 123 125
f 122 121 127 128
f 129 130 132 131
f 131 132 134 133
f 133 134 136 135
f 130 136 134 132
f 135 129 131 133
f 130 129 135 136
f 137 138 140 139
f 139 140 142 141
f 141 142 144 143
f 138 144 142 140
f 143 137 139 141
f 138 137 143 144
f 145 146 148 147
f 147 148 150 149
f 149 150 152 151
f 146 152 150 148
f 151 145 147 149
f 146 145 151 152
f 153 154 156 155
f 155 156 158 157
f 157 158 160 159
f 154 160 158 156
f 159 153 155 157
f 161 162 164 163
f 163 164 166 165
f 165 166 168 167
f 162 168 166 164
f 167 161 163 165
f 162 161 167 168
f 169 170 172 171
f 171 172 174 173
f 173 174 176 175
f 170 176 174 172
f 175 169 171 173
f 170 169 175 176
f 177 178 180 179
f 179 180 182 181
f 181 182 184 183
f 178 184 182 180
f 183 177 179 181
f 185 186 188 187
f 187 188 190 189
f 189 190 192 191
f 186 192 190 188
f 191 185 187 189
v -0.030230 0.000000 0.051959
v -0.030230 0.000000 0.029087
v 0.033194 0.000000 0.051959
v 0.033194 0.000000 0.029087
v -0.030230 0.004880 0.026438
v 0.033194 0.004880 0.026438
v 0.033194 0.001778 0.051932
v 0.033194 0.006820 0.027181
v -0.030230 0.001778 0.051932
v -0.030230 0.006820 0.027181
v 0.028191 0.003226 0.048131
v 0.028191 0.006950 0.031320
v -0.025227 0.003226 0.048131
v -0.025227 0.006950 0.031320
f 194 193 197
f 195 196 198
f 198 200 199 195
f 196 195 193 194
f 198 196 194 197
f 201 205 206 202
f 193 201 202 197
f 200 204 203 199
f 201 199 203 205
f 193 195 199 201
f 200 198 197 202
f 204 200 202 206
f 204 206 205 203
v 0.045276 0.001502 0.044518
v 0.045276 0.001502 0.027348
v 0.046092 0.007799 0.028266
v 0.056595 0.001502 0.044518
v 0.056595 0.001502 0.027348
v 0.055780 0.007799 0.028266
v 0.047121 0.008162 0.036331
v 0.054751 0.008162 0.036331
v 0.054751 0.008162 0.030252
v 0.047121 0.008162 0.030252
v 0.053928 0.009635 0.035337
v 0.053928 0.009635 0.031137
v 0.047943 0.009635 0.031137
v 0.047943 0.009635 0.035337
v 0.045425 0.007080 0.041547
v 0.045276 0.005866 0.043455
v 0.056595 0.005866 0.043455
v 0.056446 0.007080 0.041547
v 0.045276 0.005910 0.026894
v 0.056595 0.005910 0.026894
f 225 226 211 208
f 207 208 211 210
f 226 223 210 211
f 212 215 214 224
f 223 222 207 210
f 209 216 215 212
f 221 224 214 213
f 221 213 216 209
f 222 225 208 207
f 221 222 223 224
f 222 221 209 225
f 209 212 226 225
f 212 224 223 226
f 217 218 219 220
f 214 215 218 217
f 215 216 219 218
f 216 213 220 219
f 213 214 217 220
v 0.039124 0.000000 0.051629
v 0.068248 0.000000 0.051629
v 0.039124 0.000000 0.017395
v 0.068248 0.000000 0.017395
v 0.035430 0.000000 0.048315
v 0.035430 0.000000 0.020710
v 0.071942 0.000000 0.048315
v 0.071942 0.000000 0.020710
v 0.039124 0.001422 0.017395
v 0.039124 0.001422 0.051629
v 0.068248 0.001422 0.051629
v 0.068248 0.001422 0.017395
v 0.071942 0.001422 0.048315
v 0.071942 0.001422 0.020710
v 0.035430 0.001422 0.048315
v 0.035430 0.001422 0.020710
f 235 236 237 238
f 238 237 239 240
f 241 236 235 242
f 229 230 228 227
f 230 234 233 228
f 231 232 229 227
f 227 228 237 236
f 230 229 235 238
f 228 233 239 237
f 233 234 240 239
f 234 230 238 240
f 231 227 236 241
f 229 232 242 235
f 232 231 241 242
v 0.004447 0.054395 0.021061
v 0.004447 0.050003 0.021654
v 0.006328 0.049983 0.021514
v 0.006328 0.054375 0.020914
v -0.007339 0.054395 0.021061
v -0.007339 0.050003 0.021654
v -0.005457 0.049983 0.021514
v -0.005457 0.054375 0.020914
v 0.002535 0.034817 0.023976
v -0.000000 0.052620 0.021646
v 0.000640 0.056823 0.021238
v 0.003040 0.060091 0.020320
v -0.003353 0.045275 0.022399
v -0.001535 0.053070 0.021465
v -0.001617 0.046481 0.022366
v 0.004506 0.059175 0.020472
v 0.003370 0.046342 0.022241
v 0.002346 0.042010 0.022911
v 0.004077 0.035179 0.023705
v 0.000991 0.042004 0.022992
v 0.001512 0.045056 0.022561
v 0.002630 0.040740 0.023063
v 0.001336 0.040752 0.023162
v -0.001680 0.040735 0.023087
v -0.001684 0.042022 0.022899
v -0.005442 0.041101 0.022836
v -0.009695 0.042388 0.022357
v -0.009157 0.043689 0.022153
v -0.005168 0.042392 0.022765
v 0.005502 0.042289 0.022628
v 0.008994 0.043591 0.022179
v 0.009556 0.042389 0.022365
v 0.005909 0.041098 0.022764
v 0.001821 0.056031 0.021210
f 243 244 245 246
f 247 248 249 250
f 253 276 258 254
f 271 270 269 268
f 267 266 265 262
f 264 275 272 260
f 265 251 261 264
f 263 262 260 259
f 274 273 272 275
f 260 262 265 264
f 257 252 256 255
f 252 276 253 256
f 257 255 263 259
f 266 267 271 268
v -0.000000 0.022366 0.026131
v 0.020108 0.022403 0.026195
v -0.000000 0.019682 0.026518
v 0.020165 0.019803 0.026570
v -0.025131 0.022366 0.026131
v -0.025131 0.019682 0.026518
v 0.025260 0.022377 0.026138
v 0.025260 0.019746 0.026516
v -0.015592 0.058981 0.018589
v -0.015592 0.035573 0.021783
v 0.015592 0.058981 0.018589
v 0.015592 0.035573 0.021783
v -0.000000 0.012075 -0.022078
v -0.000000 0.055811 -0.027526
v -0.000000 0.060885 0.018785
v -0.000000 0.033791 0.022483
v -0.000000 0.008323 0.020772
v -0.000000 0.000000 0.020419
v -0.000000 -0.000000 -0.020419
v -0.025264 0.010707 0.027235
v -0.000000 0.010697 0.027237
v -0.000000 0.009245 0.026172
v -0.025058 0.068877 0.019295
v -0.000000 0.070020 0.017855
v -0.000000 0.068930 0.019288
v 0.025248 0.010725 0.027233
v 0.025110 0.068928 0.019289
v -0.019600 0.031776 0.023468
v -0.020809 0.030604 0.024508
v -0.000000 0.031743 0.023411
v -0.000000 0.030596 0.024507
v -0.019600 0.063258 0.019173
v -0.020814 0.064504 0.019882
v -0.000000 0.063274 0.019109
v -0.000000 0.064507 0.019881
v 0.019600 0.031776 0.023468
v 0.020814 0.030599 0.024508
v 0.019600 0.063258 0.019173
v 0.020809 0.064499 0.019882
v 0.023854 0.055735 -0.025951
v 0.022360 0.055811 -0.027526
v 0.022845 0.062646 -0.024570
v 0.021337 0.062672 -0.026081
v 0.021290 0.064156 -0.024483
v 0.022443 0.012075 -0.022078
v 0.024065 0.011947 -0.020615
v -0.022444 0.012075 -0.022078
v -0.024065 0.011947 -0.020616
v -0.024072 -0.000000 -0.018959
v -0.022463 -0.000000 -0.020419
v -0.021290 0.064156 -0.024483
v -0.021324 0.062659 -0.026084
v -0.022845 0.062646 -0.024570
v -0.000000 0.062679 -0.026080
v -0.000000 0.064154 -0.024497
v -0.023854 0.055735 -0.025951
v -0.022360 0.055811 -0.027526
v 0.024072 -0.000000 -0.018959
v 0.022463 -0.000000 -0.020419
v 0.026454 0.008323 0.020772
v 0.028020 0.009729 0.019108
v 0.026590 0.000000 0.020419
v 0.028038 0.000000 0.018810
v -0.028020 0.009729 0.019108
v -0.026454 0.008323 0.020772
v -0.028038 0.000000 0.018810
v -0.026590 0.000000 0.020419
v -0.026293 0.068506 0.018041
v -0.024753 0.070017 0.017833
v -0.025118 0.009260 0.026263
v -0.026690 0.010777 0.026059
v 0.024753 0.070017 0.017833
v 0.026293 0.068506 0.018041
v 0.026694 0.010774 0.026043
v 0.025122 0.009258 0.026248
v -0.000000 -0.000000 -0.018959
v -0.000000 0.000000 0.018810
f 279 280 278 277
f 304 305 307 306
f 305 304 308 309
f 306 307 313 312
f 309 308 310 311
f 311 310 314 315
f 312 313 315 314
f 306 292 286 304
f 304 286 285 308
f 308 285 291 310
f 306 312 288 292
f 312 314 287 288
f 314 310 291 287
f 279 277 281 282
f 278 280 284 283
f 337 336 338 339
f 293 294 338 336
f 341 343 294 293
f 291 285 286 292
f 291 292 288 287
f 353 342 325 352
f 296 346 298 297
f 297 298 351 302
f 300 301 303 348
f 302 350 349 303
f 297 307 305 296
f 296 305 309 299
f 299 309 311 301
f 297 302 313 307
f 302 303 315 313
f 303 301 311 315
f 352 334 339 353
f 345 299 301 300
f 347 296 299 344
f 316 317 319 318
f 317 316 322 321
f 318 320 348 349
f 320 319 330 331
f 321 322 334 335
f 323 324 332 333
f 324 323 326 325
f 327 329 344 345
f 328 327 331 330
f 329 328 333 332
f 336 337 350 351
f 340 341 346 347
f 341 340 342 343
f 318 337 322 316
f 289 295 326 323
f 330 290 333 328
f 333 290 289 323
f 321 335 295 289
f 330 319 317 290
f 317 321 289 290
f 329 332 324 340
f 324 325 342 340
f 337 339 334 322
f 300 331 327 345
f 344 329 340 347
f 346 341 293 298
f 300 348 320 331
f 318 349 350 337
f 336 351 298 293
f 318 319 320
f 327 328 329
f 344 299 345
f 346 296 347
f 348 303 349
f 350 302 351
f 352 325 326 295
f 335 334 352 295
f 353 339 338 294
f 294 343 342 353
v 0.004447 0.054395 0.020227
v 0.004447 0.050003 0.020820
v 0.006328 0.049983 0.020679
v 0.006328 0.054375 0.020080
v -0.007339 0.054395 0.020227
v -0.007339 0.050003 0.020820
v -0.005457 0.049983 0.020679
v -0.005457 0.054375 0.020080
v 0.002535 0.034817 0.023141
v -0.000000 0.052620 0.020812
v 0.000640 0.056823 0.020404
v 0.003040 0.060091 0.019485
v -0.003353 0.045275 0.021565
v -0.001535 0.053070 0.020631
v -0.001617 0.046481 0.021531
v 0.004506 0.059175 0.019637
v 0.003370 0.046342 0.021406
v 0.002346 0.042010 0.022077
v 0.004077 0.035179 0.022871
v 0.000991 0.042004 0.022158
v 0.001512 0.045056 0.021726
v 0.002630 0.040740 0.022228
v 0.001336 0.040752 0.022327
v -0.001680 0.040735 0.022253
v -0.001684 0.042022 0.022065
v -0.005442 0.041101 0.022002
v -0.009695 0.042388 0.021523
v -0.009157 0.043689 0.021318
v -0.005168 0.042392 0.021930
v 0.005502 0.042289 0.021794
v 0.008994 0.043591 0.021344
v 0.009556 0.042389 0.021530
v 0.005909 0.041098 0.021930
v 0.001821 0.056031 0.020375
f 354 355 356 357
f 358 359 360 361
f 364 387 369 365
f 382 381 380 379
f 378 377 376 373
f 375 386 383 371
f 376 362 372 375
f 374 373 371 370
f 385 384 383 386
f 371 373 376 375
f 368 363 367 366
f 363 387 364 367
f 368 366 374 370
f 377 378 382 379
