v 0.081575 0.028071 0.182888
v 0.109165 0.028071 0.182888
v 0.087341 0.042307 0.180154
v 0.103399 0.042307 0.180154
v 0.087341 0.045801 0.164481
v 0.103399 0.045801 0.164481
v 0.081575 0.034075 0.155959
v 0.109165 0.034075 0.155959
v -0.030464 0.021580 0.212000
v -0.002874 0.021580 0.212000
v -0.024698 0.035816 0.209267
v -0.008640 0.035816 0.209267
v -0.024698 0.039310 0.193594
v -0.008640 0.039310 0.193594
v -0.030464 0.027584 0.185072
v -0.002874 0.027584 0.185072
v 0.112890 0.028071 0.182888
v 0.140480 0.028071 0.182888
v 0.118656 0.042307 0.180154
v 0.134714 0.042307 0.180154
v 0.118656 0.045801 0.164481
v 0.134714 0.045801 0.164481
v 0.112890 0.034075 0.155959
v 0.140480 0.034075 0.155959
v 0.112890 0.015195 0.240640
v 0.140480 0.015195 0.240640
v 0.118656 0.029431 0.237906
v 0.134714 0.029431 0.237906
v 0.118656 0.032925 0.222233
v 0.134714 0.032925 0.222233
v 0.112890 0.021199 0.213711
v 0.140480 0.021199 0.213711
v 0.081575 0.015195 0.240640
v 0.109165 0.015195 0.240640
v 0.087341 0.029431 0.237906
v 0.103399 0.029431 0.237906
v 0.087341 0.032925 0.222233
v 0.103399 0.032925 0.222233
v 0.081575 0.021199 0.213711
v 0.109165 0.021199 0.213711
v 0.112890 0.021580 0.212000
v 0.140480 0.021580 0.212000
v 0.118656 0.035816 0.209267
v 0.134714 0.035816 0.209267
v 0.118656 0.039310 0.193594
v 0.134714 0.039310 0.193594
v 0.112890 0.027584 0.185072
v 0.140480 0.027584 0.185072
v -0.062216 0.028071 0.182888
v -0.034626 0.028071 0.182888
v -0.056450 0.042307 0.180154
v -0.040392 0.042307 0.180154
v -0.056450 0.045801 0.164481
v -0.040392 0.045801 0.164481
v -0.062216 0.034075 0.155959
v -0.034626 0.034075 0.155959
v 0.081575 0.021580 0.212000
v 0.109165 0.021580 0.212000
v 0.087341 0.035816 0.209267
v 0.103399 0.035816 0.209267
v 0.087341 0.039310 0.193594
v 0.103399 0.039310 0.193594
v 0.081575 0.027584 0.185072
v 0.109165 0.027584 0.185072
v -0.030464 0.028071 0.182888
v -0.002874 0.028071 0.182888
v -0.024698 0.042307 0.180154
v -0.008640 0.042307 0.180154
v -0.024698 0.045801 0.164481
v -0.008640 0.045801 0.164481
v -0.030464 0.034075 0.155959
v -0.002874 0.034075 0.155959
v 0.001288 0.028071 0.182888
v 0.028877 0.028071 0.182888
v 0.007053 0.042307 0.180154
v 0.023112 0.042307 0.180154
v 0.007053 0.045801 0.164481
v 0.023112 0.045801 0.164481
v 0.001288 0.034075 0.155959
v 0.028877 0.034075 0.155959
v 0.001288 0.015195 0.240640
v 0.028877 0.015195 0.240640
v 0.007053 0.029431 0.237906
v 0.023112 0.029431 0.237906
v 0.007053 0.032925 0.222233
v 0.023112 0.032925 0.222233
v 0.001288 0.021199 0.213711
v 0.028877 0.021199 0.213711
v -0.030464 0.015195 0.240640
v -0.002874 0.015195 0.240640
v -0.024698 0.029431 0.237906
v -0.008640 0.029431 0.237906
v -0.024698 0.032925 0.222233
v -0.008640 0.032925 0.222233
v -0.030464 0.021199 0.213711
v -0.002874 0.021199 0.213711
v 0.049824 0.015195 0.240640
v 0.077413 0.015195 0.240640
v 0.055589 0.029431 0.237906
v 0.071648 0.029431 0.237906
v 0.055589 0.032925 0.222233
v 0.071648 0.032925 0.222233
v 0.049824 0.021199 0.213711
v 0.077413 0.021199 0.213711
v -0.125719 0.015195 0.240640
v -0.098129 0.015195 0.240640
v -0.119953 0.029431 0.237906
v -0.103895 0.029431 0.237906
v -0.119953 0.032925 0.222233
v -0.103895 0.032925 0.222233
v -0.125719 0.021199 0.213711
v -0.098129 0.021199 0.213711
v -0.093967 0.015195 0.240640
v -0.066378 0.015195 0.240640
v -0.088202 0.029431 0.237906
v -0.072143 0.029431 0.237906
v -0.088202 0.032925 0.222233
v -0.072143 0.032925 0.222233
v -0.093967 0.021199 0.213711
v -0.066378 0.021199 0.213711
v -0.062216 0.015195 0.240640
v -0.034626 0.015195 0.240640
v -0.056450 0.029431 0.237906
v -0.040392 0.029431 0.237906
v -0.056450 0.032925 0.222233
v -0.040392 0.032925 0.222233
v -0.062216 0.021199 0.213711
v -0.034626 0.021199 0.213711
v -0.062216 0.021580 0.212000
v -0.034626 0.021580 0.212000
v -0.056450 0.035816 0.209267
v -0.040392 0.035816 0.209267
v -0.056450 0.039310 0.193594
v -0.040392 0.039310 0.193594
v -0.062216 0.027584 0.185072
v -0.034626 0.027584 0.185072
v -0.093967 0.021580 0.212000
v -0.066378 0.021580 0.212000
v -0.088202 0.035816 0.209267
v -0.072143 0.035816 0.209267
v -0.088202 0.039310 0.193594
v -0.072143 0.039310 0.193594
v -0.093967 0.027584 0.185072
v -0.066378 0.027584 0.185072
v -0.125719 0.021580 0.212000
v -0.098129 0.021580 0.212000
v -0.119953 0.035816 0.209267
v -0.103895 0.035816 0.209267
v -0.119953 0.039310 0.193594
v -0.103895 0.039310 0.193594
v -0.125719 0.027584 0.185072
v -0.098129 0.027584 0.185072
v 0.049824 0.028071 0.182888
v 0.077413 0.028071 0.182888
v 0.055589 0.042307 0.180154
v 0.071648 0.042307 0.180154
v 0.055589 0.045801 0.164481
v 0.071648 0.045801 0.164481
v 0.049824 0.034075 0.155959
v 0.077413 0.034075 0.155959
v 0.001288 0.021580 0.212000
v 0.028877 0.021580 0.212000
v 0.007053 0.035816 0.209267
v 0.023112 0.035816 0.209267
v 0.007053 0.039310 0.193594
v 0.023112 0.039310 0.193594
v 0.001288 0.027584 0.185072
v 0.028877 0.027584 0.185072
v 0.049824 0.021580 0.212000
v 0.077413 0.021580 0.212000
v 0.055589 0.035816 0.209267
v 0.071648 0.035816 0.209267
v 0.055589 0.039310 0.193594
v 0.071648 0.039310 0.193594
v 0.049824 0.027584 0.185072
v 0.077413 0.027584 0.185072
v -0.093967 0.028071 0.182888
v -0.066378 0.028071 0.182888
v -0.088202 0.042307 0.180154
v -0.072143 0.042307 0.180154
v -0.088202 0.045801 0.164481
v -0.072143 0.045801 0.164481
v -0.093967 0.034075 0.155959
v -0.066378 0.034075 0.155959
v -0.125719 0.028071 0.182888
v -0.098129 0.028071 0.182888
v -0.119953 0.042307 0.180154
v -0.103895 0.042307 0.180154
v -0.119953 0.045801 0.164481
v -0.103895 0.045801 0.164481
v -0.125719 0.034075 0.155959
v -0.098129 0.034075 0.155959
s 1
f 2 3 1
f 3 6 5
f 6 7 5
f 8 4 2
f 7 3 5
f 9 12 11
f 12 13 11
f 14 15 13
f 16 12 10
f 9 13 15
f 9 16 10
f 17 20 19
f 20 21 19
f 21 24 23
f 18 22 20
f 23 19 21
f 25 28 27
f 28 29 27
f 30 31 29
f 26 30 28
f 25 29 31
f 25 32 26
f 33 36 35
f 36 37 35
f 38 39 37
f 34 38 36
f 33 37 39
f 33 40 34
f 41 44 43
f 44 45 43
f 46 47 45
f 42 46 44
f 41 45 47
f 41 48 42
f 49 52 51
f 52 53 51
f 54 55 53
f 56 52 50
f 55 51 53
f 57 60 59
f 60 61 59
f 62 63 61
f 64 60 58
f 57 61 63
f 57 64 58
f 66 67 65
f 67 70 69
f 70 71 69
f 72 68 66
f 71 67 69
f 74 75 73
f 75 78 77
f 78 79 77
f 80 76 74
f 79 75 77
f 82 83 81
f 84 85 83
f 86 87 85
f 82 86 84
f 81 85 87
f 81 88 82
f 90 91 89
f 92 93 91
f 94 95 93
f 90 94 92
f 89 93 95
f 89 96 90
f 98 99 97
f 100 101 99
f 102 103 101
f 98 102 100
f 97 101 103
f 97 104 98
f 105 108 107
f 108 109 107
f 110 111 109
f 106 110 108
f 105 109 111
f 105 112 106
f 114 115 113
f 116 117 115
f 118 119 117
f 114 118 116
f 113 117 119
f 113 120 114
f 122 123 121
f 124 125 123
f 125 128 127
f 122 126 124
f 121 125 127
f 121 128 122
f 130 131 129
f 132 133 131
f 133 136 135
f 136 132 130
f 129 133 135
f 129 136 130
f 138 139 137
f 140 141 139
f 142 143 141
f 144 140 138
f 137 141 143
f 137 144 138
f 145 148 147
f 148 149 147
f 150 151 149
f 152 148 146
f 145 149 151
f 145 152 146
f 154 155 153
f 156 157 155
f 158 159 157
f 160 156 154
f 159 155 157
f 162 163 161
f 164 165 163
f 166 167 165
f 162 166 164
f 161 165 167
f 161 168 162
f 170 171 169
f 172 173 171
f 174 175 173
f 170 174 172
f 175 171 173
f 169 176 170
f 178 179 177
f 180 181 179
f 182 183 181
f 184 180 178
f 177 181 183
f 185 188 187
f 188 189 187
f 190 191 189
f 192 188 186
f 191 187 189
f 2 4 3
f 3 4 6
f 6 8 7
f 8 6 4
f 7 1 3
f 9 10 12
f 12 14 13
f 14 16 15
f 16 14 12
f 9 11 13
f 9 15 16
f 17 18 20
f 20 22 21
f 21 22 24
f 18 24 22
f 23 17 19
f 25 26 28
f 28 30 29
f 30 32 31
f 26 32 30
f 25 27 29
f 25 31 32
f 33 34 36
f 36 38 37
f 38 40 39
f 34 40 38
f 33 35 37
f 33 39 40
f 41 42 44
f 44 46 45
f 46 48 47
f 42 48 46
f 41 43 45
f 41 47 48
f 49 50 52
f 52 54 53
f 54 56 55
f 56 54 52
f 55 49 51
f 57 58 60
f 60 62 61
f 62 64 63
f 64 62 60
f 57 59 61
f 57 63 64
f 66 68 67
f 67 68 70
f 70 72 71
f 72 70 68
f 71 65 67
f 74 76 75
f 75 76 78
f 78 80 79
f 80 78 76
f 79 73 75
f 82 84 83
f 84 86 85
f 86 88 87
f 82 88 86
f 81 83 85
f 81 87 88
f 90 92 91
f 92 94 93
f 94 96 95
f 90 96 94
f 89 91 93
f 89 95 96
f 98 100 99
f 100 102 101
f 102 104 103
f 98 104 102
f 97 99 101
f 97 103 104
f 105 106 108
f 108 110 109
f 110 112 111
f 106 112 110
f 105 107 109
f 105 111 112
f 114 116 115
f 116 118 117
f 118 120 119
f 114 120 118
f 113 115 117
f 113 119 120
f 122 124 123
f 124 126 125
f 125 126 128
f 122 128 126
f 121 123 125
f 121 127 128
f 130 132 131
f 132 134 133
f 133 134 136
f 136 134 132
f 129 131 133
f 129 135 136
f 138 140 139
f 140 142 141
f 142 144 143
f 144 142 140
f 137 139 141
f 137 143 144
f 145 146 148
f 148 150 149
f 150 152 151
f 152 150 148
f 145 147 149
f 145 151 152
f 154 156 155
f 156 158 157
f 158 160 159
f 160 158 156
f 159 153 155
f 162 164 163
f 164 166 165
f 166 168 167
f 162 168 166
f 161 163 165
f 161 167 168
f 170 172 171
f 172 174 173
f 174 176 175
f 170 176 174
f 175 169 171
f 169 175 176
f 178 180 179
f 180 182 181
f 182 184 183
f 184 182 180
f 177 179 181
f 185 186 188
f 188 190 189
f 190 192 191
f 192 190 188
f 191 185 187
v -0.151152 0.000000 0.259797
v -0.151152 0.000000 0.145434
v 0.165969 0.000000 0.259797
v 0.165969 0.000000 0.145434
v -0.151152 0.024399 0.132191
v 0.165969 0.024399 0.132191
v 0.165969 0.008889 0.259658
v 0.165969 0.034100 0.135902
v -0.151152 0.008889 0.259658
v -0.151152 0.034100 0.135902
v 0.140953 0.016132 0.240656
v 0.140953 0.034750 0.156599
v -0.126136 0.016132 0.240656
v -0.126136 0.034750 0.156599
s 1
f 194 193 197
f 195 196 198
f 205 202 201
f 198 199 195
f 201 197 193
f 200 203 199
f 199 205 201
f 195 201 193
f 195 194 196
f 196 197 198
f 198 202 200
f 200 206 204
f 206 203 204
f 205 206 202
f 198 200 199
f 201 202 197
f 200 204 203
f 199 203 205
f 195 199 201
f 195 193 194
f 196 194 197
f 198 197 202
f 200 202 206
f 206 205 203
v 0.226381 0.007512 0.222589
v 0.226381 0.007512 0.136741
v 0.230458 0.038993 0.141328
v 0.282975 0.007512 0.222589
v 0.282975 0.007512 0.136741
v 0.278899 0.038993 0.141328
v 0.235603 0.040811 0.181656
v 0.273754 0.040811 0.181656
v 0.273754 0.040811 0.151258
v 0.235603 0.040811 0.151258
v 0.269642 0.048175 0.176684
v 0.269642 0.048175 0.155685
v 0.239714 0.048175 0.155685
v 0.239714 0.048175 0.176684
v 0.227124 0.035400 0.207735
v 0.226381 0.029328 0.217275
v 0.282975 0.029328 0.217275
v 0.282232 0.035400 0.207735
v 0.226381 0.029548 0.134471
v 0.282975 0.029548 0.134471
s 1
f 226 208 225
f 208 210 207
f 223 211 226
f 212 214 224
f 222 210 223
f 218 220 217
f 216 212 209
f 224 213 221
f 215 217 214
f 216 218 215
f 216 220 219
f 214 220 213
f 213 209 221
f 222 208 207
f 222 224 221
f 221 225 222
f 212 225 209
f 224 226 212
f 226 211 208
f 208 211 210
f 223 210 211
f 212 215 214
f 222 207 210
f 218 219 220
f 216 215 212
f 224 214 213
f 215 218 217
f 216 219 218
f 216 213 220
f 214 217 220
f 213 216 209
f 222 225 208
f 222 223 224
f 221 209 225
f 212 226 225
f 224 223 226
v 0.195620 0.000000 0.258147
v 0.341242 0.000000 0.258147
v 0.195620 0.000000 0.086977
v 0.341242 0.000000 0.086977
v 0.177151 0.000000 0.241576
v 0.177151 0.000000 0.103548
v 0.359711 0.000000 0.241576
v 0.359711 0.000000 0.103548
v 0.195620 0.007110 0.086977
v 0.195620 0.007110 0.258147
v 0.341242 0.007110 0.258147
v 0.341242 0.007110 0.086977
v 0.359711 0.007110 0.241576
v 0.359711 0.007110 0.103548
v 0.177151 0.007110 0.241576
v 0.177151 0.007110 0.103548
s 1
f 236 238 235
f 238 239 240
f 241 235 242
f 230 227 229
f 230 233 228
f 231 229 227
f 228 236 227
f 229 238 230
f 233 237 228
f 234 239 233
f 230 240 234
f 227 241 231
f 232 235 229
f 231 242 232
f 236 237 238
f 238 237 239
f 241 236 235
f 230 228 227
f 230 234 233
f 231 232 229
f 228 237 236
f 229 235 238
f 233 239 237
f 234 240 239
f 230 238 240
f 227 236 241
f 232 242 235
f 231 241 242
v 0.022234 0.271973 0.105305
v 0.022234 0.250013 0.108272
v 0.031642 0.249917 0.107568
v 0.031642 0.271874 0.104572
v -0.036694 0.271973 0.105305
v -0.036694 0.250013 0.108272
v -0.027286 0.249917 0.107568
v -0.027286 0.271874 0.104572
v 0.012675 0.174087 0.119879
v -0.000000 0.263102 0.108229
v 0.003198 0.284115 0.106191
v 0.015202 0.300454 0.101599
v -0.016767 0.226376 0.111995
v -0.007674 0.265350 0.107326
v -0.008085 0.232407 0.111829
v 0.022531 0.295876 0.102358
v 0.016849 0.231711 0.111203
v 0.011730 0.210049 0.114557
v 0.020387 0.175895 0.118525
v 0.004954 0.210021 0.114959
v 0.007560 0.225280 0.112803
v 0.013152 0.203698 0.115313
v 0.006681 0.203758 0.115808
v -0.008401 0.203673 0.115436
v -0.008422 0.210111 0.114497
v -0.027208 0.205506 0.114182
v -0.048475 0.211939 0.111787
v -0.045787 0.218444 0.110763
v -0.025840 0.211961 0.113823
v 0.027510 0.211443 0.113140
v 0.044968 0.217953 0.110894
v 0.047778 0.211946 0.111824
v 0.029545 0.205490 0.113821
v 0.009106 0.280157 0.106048
s 1
f 244 246 243
f 248 250 247
f 276 254 253
f 271 269 268
f 266 262 267
f 264 272 260
f 251 264 265
f 263 260 259
f 273 275 274
f 260 265 264
f 257 256 255
f 252 253 256
f 257 263 259
f 267 268 266
f 244 245 246
f 248 249 250
f 276 258 254
f 271 270 269
f 266 265 262
f 264 275 272
f 251 261 264
f 263 262 260
f 273 272 275
f 260 262 265
f 257 252 256
f 252 276 253
f 257 255 263
f 267 271 268
v -0.000000 0.111831 0.130653
v 0.100540 0.112016 0.130974
v -0.000000 0.098410 0.132588
v 0.100826 0.099013 0.132852
v -0.125656 0.111831 0.130653
v -0.125656 0.098410 0.132588
v 0.126299 0.111887 0.130689
v 0.126299 0.098732 0.132580
v -0.077960 0.294906 0.092943
v -0.077960 0.177865 0.108913
v 0.077960 0.294906 0.092943
v 0.077960 0.177865 0.108913
v -0.000000 0.060374 -0.110389
v -0.000000 0.279057 -0.137632
v -0.000000 0.304427 0.093927
v -0.000000 0.168956 0.112413
v -0.000000 0.041615 0.103861
v -0.000000 0.000000 0.102097
v -0.000000 -0.000000 -0.102097
v -0.126322 0.053535 0.136176
v -0.000000 0.053485 0.136183
v -0.000000 0.046224 0.130859
v -0.125292 0.344384 0.096477
v -0.000000 0.350099 0.089274
v -0.000000 0.344650 0.096441
v 0.126241 0.053625 0.136164
v 0.125551 0.344640 0.096443
v -0.098002 0.158878 0.117342
v -0.104045 0.153018 0.122538
v -0.000000 0.158717 0.117057
v -0.000000 0.152978 0.122537
v -0.098002 0.316288 0.095863
v -0.104069 0.322518 0.099408
v -0.000000 0.316368 0.095546
v -0.000000 0.322533 0.099406
v 0.098002 0.158878 0.117342
v 0.104069 0.152994 0.122541
v 0.098002 0.316288 0.095863
v 0.104045 0.322495 0.099411
v 0.119270 0.278673 -0.129753
v 0.111802 0.279057 -0.137632
v 0.114227 0.313231 -0.122848
v 0.106687 0.313361 -0.130404
v 0.106448 0.320781 -0.122414
v 0.112213 0.060374 -0.110389
v 0.120324 0.059733 -0.103074
v -0.112222 0.060374 -0.110389
v -0.120324 0.059734 -0.103082
v -0.120359 -0.000000 -0.094793
v -0.112316 -0.000000 -0.102097
v -0.106448 0.320781 -0.122414
v -0.106619 0.313296 -0.130418
v -0.114227 0.313231 -0.122848
v -0.000000 0.313393 -0.130398
v -0.000000 0.320771 -0.122484
v -0.119270 0.278673 -0.129753
v -0.111802 0.279057 -0.137632
v 0.120359 -0.000000 -0.094793
v 0.112316 -0.000000 -0.102097
v 0.132271 0.041615 0.103861
v 0.140101 0.048643 0.095538
v 0.132952 0.000000 0.102097
v 0.140192 0.000000 0.094049
v -0.140101 0.048643 0.095538
v -0.132271 0.041615 0.103861
v -0.140192 0.000000 0.094049
v -0.132952 0.000000 0.102097
v -0.131465 0.342530 0.090205
v -0.123764 0.350084 0.089163
v -0.125590 0.046302 0.131317
v -0.133449 0.053883 0.130293
v 0.123765 0.350084 0.089163
v 0.131466 0.342531 0.090203
v 0.133471 0.053869 0.130213
v 0.125611 0.046289 0.131240
v -0.000000 -0.000000 -0.094793
v -0.000000 0.000000 0.094049
s 1
f 279 278 277
f 277 282 279
f 280 283 278
f 285 292 291
f 292 287 291
f 353 325 352
f 346 297 296
f 297 351 302
f 301 348 300
f 302 349 303
f 304 307 306
f 304 309 305
f 307 312 306
f 308 311 309
f 311 314 315
f 312 315 314
f 306 286 304
f 304 285 308
f 285 310 308
f 306 288 292
f 312 287 288
f 310 287 314
f 297 305 296
f 305 299 296
f 309 301 299
f 297 313 307
f 303 313 302
f 301 315 303
f 334 353 352
f 345 301 300
f 347 299 344
f 316 319 318
f 316 321 317
f 320 349 318
f 320 330 331
f 322 335 321
f 323 332 333
f 324 326 325
f 327 344 345
f 327 330 328
f 328 332 329
f 336 350 351
f 336 339 337
f 341 347 340
f 341 342 343
f 337 316 318
f 295 323 289
f 290 328 330
f 333 289 323
f 321 295 289
f 319 290 330
f 317 289 290
f 332 340 329
f 294 336 293
f 325 340 324
f 341 294 293
f 337 334 322
f 300 327 345
f 344 340 347
f 346 293 298
f 300 320 331
f 349 337 318
f 351 293 336
f 318 319 320
f 327 328 329
f 344 299 345
f 346 296 347
f 348 303 349
f 350 302 351
f 352 326 295
f 335 352 295
f 353 338 294
f 343 353 294
f 279 280 278
f 277 281 282
f 280 284 283
f 285 286 292
f 292 288 287
f 353 342 325
f 346 298 297
f 297 298 351
f 301 303 348
f 302 350 349
f 304 305 307
f 304 308 309
f 307 313 312
f 308 310 311
f 311 310 314
f 312 313 315
f 306 292 286
f 304 286 285
f 285 291 310
f 306 312 288
f 312 314 287
f 310 291 287
f 297 307 305
f 305 309 299
f 309 311 301
f 297 302 313
f 303 315 313
f 301 311 315
f 334 339 353
f 345 299 301
f 347 296 299
f 316 317 319
f 316 322 321
f 320 348 349
f 320 319 330
f 322 334 335
f 323 324 332
f 324 323 326
f 327 329 344
f 327 331 330
f 328 333 332
f 336 337 350
f 336 338 339
f 341 346 347
f 341 340 342
f 337 322 316
f 295 326 323
f 290 333 328
f 333 290 289
f 321 335 295
f 319 317 290
f 317 321 289
f 332 324 340
f 294 338 336
f 325 342 340
f 341 343 294
f 337 339 334
f 300 331 327
f 344 329 340
f 346 341 293
f 300 348 320
f 349 350 337
f 351 298 293
f 352 325 326
f 335 334 352
f 353 339 338
f 343 342 353
v 0.022234 0.271973 0.101133
v 0.022234 0.250013 0.104101
v 0.031642 0.249917 0.103397
v 0.031642 0.271874 0.100401
v -0.036694 0.271973 0.101133
v -0.036694 0.250013 0.104101
v -0.027286 0.249917 0.103397
v -0.027286 0.271874 0.100401
v 0.012675 0.174087 0.115707
v -0.000000 0.263102 0.104058
v 0.003198 0.284115 0.102019
v 0.015202 0.300454 0.097427
v -0.016767 0.226376 0.107824
v -0.007674 0.265350 0.103155
v -0.008085 0.232407 0.107657
v 0.022531 0.295876 0.098186
v 0.016849 0.231711 0.107031
v 0.011730 0.210049 0.110385
v 0.020387 0.175895 0.114354
v 0.004954 0.210021 0.110788
v 0.007560 0.225280 0.108631
v 0.013152 0.203698 0.111141
v 0.006681 0.203758 0.111636
v -0.008401 0.203673 0.111264
v -0.008422 0.210111 0.110326
v -0.027208 0.205506 0.110010
v -0.048475 0.211939 0.107615
v -0.045787 0.218444 0.106592
v -0.025840 0.211961 0.109652
v 0.027510 0.211443 0.108968
v 0.044968 0.217953 0.106722
v 0.047778 0.211946 0.107652
v 0.029545 0.205490 0.109649
v 0.009106 0.280157 0.101876
s 1
f 355 357 354
f 359 361 358
f 387 365 364
f 382 380 379
f 377 373 378
f 375 383 371
f 362 375 376
f 374 371 370
f 384 386 385
f 371 376 375
f 368 367 366
f 363 364 367
f 368 374 370
f 378 379 377
f 355 356 357
f 359 360 361
f 387 369 365
f 382 381 380
f 377 376 373
f 375 386 383
f 362 372 375
f 374 373 371
f 384 383 386
f 371 373 376
f 368 363 367
f 363 387 364
f 368 366 374
f 378 382 379
