# Exported from Wings 3D 2.4.1
mtllib shape.mtl
o Cube2
#27 vertices, 32 faces
v -1.00000000 0.15208576 -1.00000000
v -2.14045606 0.0000000e+0 2.14045606
v -1.40084037 2.15889283 -0.78326227
v -0.48115484 2.20150521 0.47905947
v 1.00000000 0.15208576 -1.00000000
v 1.00000000 0.15208576 1.00000000
v 1.27593691 1.50598168 -0.44692677
v 0.35186463 1.69238795 0.77191678
v 0.18652905 2.25638357 -1.55219224
v 0.89441341 3.53703798 0.53433756
v -1.20042019 1.15548929 -0.89163113
v -0.60715566 2.20763820 -1.16772725
v -0.40673548 1.20423466 -1.27609612
v -1.04489791 1.21885019 -2.59165761
v -1.83858262 1.17010482 -2.20719263
v -1.24531810 2.22225373 -2.48328875
v -1.22317821 1.22293326 -2.95917955
v -2.01686292 1.17418789 -2.57471457
v -1.42359840 2.22633679 -2.85081069
v -1.19731575 1.32623383 -2.85161667
v -1.35604199 2.12089669 -2.76579207
v -1.27118057 2.11895315 -2.59085162
v -1.11245432 1.32429029 -2.67667623
v -0.63732582 1.46725513 -3.12169408
v -0.79605207 2.26191799 -3.03586947
v -0.71119065 2.25997445 -2.86092903
v -0.55246440 1.46531159 -2.94675364
vn -0.45346709 -0.47101104 -0.75664800
vn -0.51944277 0.19744520 0.83138114
vn -0.74256013 0.59091267 -0.31531996
vn -0.36392046 0.79235952 0.48962056
vn 0.83987036 -0.39793609 -0.36914042
vn 0.79933194 -0.21725686 0.56023916
vn 0.99980565 -1.0933538e-2 1.6404670e-2
vn 0.54034454 0.18554849 0.82073110
vn 9.2014982e-2 0.51867759 -0.85000400
vn 0.41617777 0.72272440 0.55178393
vn -0.79841795 -0.18987538 -0.57138089
vn -0.30384095 0.66010269 -0.68698261
vn 1.5051821e-2 -0.29925355 -0.95405490
vn 0.82203855 -0.40206989 -0.40322751
vn -0.77629994 -0.50968962 0.37091089
vn 0.52618396 0.81395010 -0.24620250
vn 0.59144442 -0.23646688 -0.77089358
vn -0.84721110 -0.33833318 -0.40959006
vn 0.31452102 0.55201294 -0.77224234
vn 0.61856266 -0.21341867 -0.75619621
vn 0.45952387 0.58280896 -0.67020261
vn 0.81586405 0.57464787 6.4386894e-2
vn 0.97490285 -0.22157976 -2.1606709e-2
vn 0.36763328 -0.42953338 -0.82483141
vn 0.14271846 0.69650252 -0.70321809
vn 0.64665958 0.68496100 0.33564835
vn 0.87157440 -0.44107490 0.21403503
g Cube2_default
usemtl default
s 1
f 1//1 5//5 6//6 2//2
f 1//1 13//13 9//9 5//5
f 2//2 3//3 11//11 1//1
f 2//2 8//8 4//4
f 4//4 3//3 2//2
f 4//4 8//8 10//10
f 4//4 9//9 12//12 3//3
f 5//5 8//8 6//6
f 5//5 9//9 7//7
f 6//6 8//8 2//2
f 7//7 8//8 5//5
f 7//7 10//10 8//8
f 9//9 10//10 7//7
f 10//10 9//9 4//4
f 11//11 13//13 1//1
f 11//11 15//15 14//14 13//13
f 12//12 11//11 3//3
f 12//12 16//16 15//15 11//11
f 13//13 12//12 9//9
f 13//13 14//14 16//16 12//12
f 14//14 23//23 22//22 16//16
f 15//15 18//18 17//17 14//14
f 16//16 19//19 18//18 15//15
f 16//16 22//22 21//21 19//19
f 17//17 20//20 23//23 14//14
f 18//18 19//19 17//17
f 19//19 21//21 20//20 17//17
f 20//20 24//24 27//27 23//23
f 21//21 25//25 24//24 20//20
f 22//22 26//26 25//25 21//21
f 23//23 27//27 26//26 22//22
f 25//25 26//26 27//27 24//24
